<?xml version="1.0" encoding="UTF-8"?>
<svg version="1.1" xmlns="http://www.w3.org/2000/svg" width="512" height="512">
<path d="M0 0 C141.24 0 282.48 0 428 0 C428 214.40026095 428 214.40026095 421.8125 229.8125 C421.51206787 230.59036865 421.21163574 231.3682373 420.90209961 232.16967773 C416.31921852 243.6498715 410.0639808 253.61675853 402 263 C401.48308594 263.66128906 400.96617187 264.32257813 400.43359375 265.00390625 C383.80139836 285.63783286 357.32516598 296.53565794 331.69059014 299.73019004 C323.14330217 300.58730439 314.53143002 300.40532864 305.9519043 300.37231445 C303.70583427 300.37474888 301.45976534 300.37847446 299.21369934 300.38337708 C293.17269568 300.39269791 287.13185654 300.3834369 281.09086585 300.37004495 C274.73935439 300.35863966 268.38784995 300.36284474 262.03633118 300.36479187 C251.38055415 300.36567167 240.72484746 300.35472993 230.0690918 300.33618164 C219.13905915 300.31716135 208.20910075 300.3101019 197.27905273 300.31567383 C184.04945822 300.32239824 170.81990445 300.31906138 157.59031105 300.30657005 C152.5583822 300.30194567 147.52647346 300.30104077 142.49454308 300.3031559 C136.56574525 300.30504907 130.63704165 300.29685624 124.7082653 300.2810955 C122.54201904 300.27687894 120.37576317 300.27598424 118.20951462 300.27878571 C104.07200256 300.29428639 90.28072306 300.00866196 76.625 295.875 C75.92149414 295.66327148 75.21798828 295.45154297 74.49316406 295.23339844 C46.77194298 286.43831223 24.4342279 266.71880503 11.00390625 241.125 C-22.18485567 174.58965988 0 29.28061447 0 0 Z M282.88671875 72.75390625 C279.259629 77.07187023 275.86446074 81.5625414 272.47021484 86.06347656 C269.76256507 89.62991263 267.00323506 93.15621815 264.25 96.6875 C263.04680367 98.23301739 261.84367942 99.7785909 260.640625 101.32421875 C259.73666992 102.4851001 259.73666992 102.4851001 258.81445312 103.66943359 C255.87486662 107.44517266 252.93752285 111.22265535 250 115 C248.83334461 116.50000877 247.66667793 118.00000876 246.5 119.5 C245.63375 120.61375 245.63375 120.61375 244.75 121.75 C230.16666667 140.5 215.58333333 159.25 201 178 C197.46863392 173.68577686 194.1959198 169.20833411 190.9375 164.6875 C190.36749268 163.89786865 189.79748535 163.1082373 189.21020508 162.29467773 C185.47025383 157.0944982 181.80260632 151.85005721 178.1875 146.5625 C177.28910028 145.25518237 176.39066387 143.94788995 175.4921875 142.640625 C173.91813131 140.34868375 172.3640455 138.04720795 170.8203125 135.734375 C166.18227227 128.98485342 161.84759963 124.61586654 154 122 C146.86771147 121.24923279 142.00262139 123.12974856 136 127 C131.63581722 131.25228066 129.28570419 136.38104497 128.625 142.4375 C129.50026471 150.75251476 133.5188473 156.65544601 138.3125 163.25 C139.57966077 165.02587495 140.84658116 166.80192143 142.11328125 168.578125 C142.75990723 169.47853516 143.4065332 170.37894531 144.07275391 171.30664062 C147.08308816 175.51363423 150.03999001 179.7575285 153 184 C154.16119601 185.6590378 155.32265535 187.31789132 156.484375 188.9765625 C158.87163138 192.38673824 161.25679597 195.79836513 163.640625 199.2109375 C166.55483167 203.38249125 169.47601152 207.54909728 172.39990234 211.71386719 C173.91585716 213.87978128 175.42177988 216.0523389 176.92578125 218.2265625 C177.80440252 219.48457408 178.68328987 220.74239989 179.5625 222 C180.30628906 223.0725 181.05007812 224.145 181.81640625 225.25 C185.75834993 230.21445143 190.02096001 232.93826207 196 235 C202.36218186 235.6940562 207.76202047 234.46412279 212.86328125 230.58203125 C218.65039718 225.15436351 223.16604937 218.59123448 227.8515625 212.2265625 C230.84564389 208.17443623 233.95968697 204.2316533 237.125 200.3125 C241.17349967 195.29189192 245.16004507 190.23554 249.07958984 185.11328125 C252.61391982 180.4954239 256.17783604 175.90114535 259.75 171.3125 C260.63921143 170.17010864 260.63921143 170.17010864 261.54638672 169.00463867 C262.75934681 167.44654195 263.97240086 165.88851837 265.18554688 164.33056641 C268.12513338 160.55482734 271.06247715 156.77734465 274 153 C275.16665539 151.49999123 276.33332207 149.99999124 277.5 148.5 C278.0775 147.7575 278.655 147.015 279.25 146.25 C284.5 139.5 284.5 139.5 286.25097656 137.24902344 C287.41474882 135.75255916 288.57816174 134.25581537 289.74121094 132.75878906 C292.69924195 128.95229202 295.6638231 125.15121571 298.640625 121.359375 C304.1428462 114.34047322 309.60427373 107.30357761 314.8125 100.0625 C315.22725586 99.48918945 315.64201172 98.91587891 316.06933594 98.32519531 C320.12231005 92.61624208 320.71356933 87.86045937 320 81 C318.18638618 74.78345625 314.33162413 70.53889462 309 67 C299.26118155 62.53637488 289.91009084 65.16235125 282.88671875 72.75390625 Z " fill="#000000" transform="translate(42,170)"/>
<path d="M0 0 C0.93702895 -0.00226556 1.87405789 -0.00453111 2.83948165 -0.00686532 C5.95735704 -0.01315993 9.07518845 -0.01237889 12.19306946 -0.0115509 C14.43766333 -0.01454525 16.68225668 -0.01794842 18.92684937 -0.02172852 C25.00970982 -0.03054521 31.0925562 -0.03290567 37.17542243 -0.0335443 C40.9805648 -0.03425619 44.78570362 -0.03639316 48.59084511 -0.03904152 C61.1943867 -0.04781094 73.79791805 -0.05246219 86.40146186 -0.05171105 C87.4188252 -0.05165111 87.4188252 -0.05165111 88.45674133 -0.05158997 C89.13582087 -0.05154909 89.81490041 -0.0515082 90.51455811 -0.05146609 C101.51057079 -0.05105996 112.50654917 -0.06062306 123.50255194 -0.07472833 C134.81885218 -0.0891288 146.13513054 -0.0958138 157.45144206 -0.09513456 C163.794321 -0.09488026 170.13716111 -0.09769363 176.48003197 -0.10831261 C182.44972178 -0.11803432 188.41933598 -0.11804493 194.38902855 -0.11079597 C196.571397 -0.10975515 198.75377027 -0.11208297 200.93613052 -0.11815643 C215.12513929 -0.15506473 228.9485255 0.10961916 242.65522766 4.25871277 C243.71048645 4.57630554 243.71048645 4.57630554 244.7870636 4.90031433 C272.52737856 13.70145843 294.75620271 33.40654656 308.26850891 58.95793152 C312.56792033 67.55880073 315.70085249 76.65746171 317.28022766 86.13371277 C177.36022766 86.13371277 37.44022766 86.13371277 -106.71977234 86.13371277 C-99.10336728 55.66809254 -83.64120978 31.48519387 -56.56889343 14.83537292 C-39.27497925 4.66277033 -19.97464564 -0.03600381 0 0 Z " fill="#000000" transform="translate(150.7197723388672,41.86628723144531)"/>
</svg>
