<svg width="30" height="30" viewBox="0 0 30 30" fill="none" xmlns="http://www.w3.org/2000/svg">
<rect width="30" height="30" rx="15" fill="white"/>
<path d="M15.0039 10.5078C12.5195 10.5078 10.5156 12.5117 10.5156 14.9961C10.5156 17.4805 12.5195 19.4844 15.0039 19.4844C17.4883 19.4844 19.4922 17.4805 19.4922 14.9961C19.4922 12.5117 17.4883 10.5078 15.0039 10.5078ZM15.0039 17.9141C13.3984 17.9141 12.0859 16.6055 12.0859 14.9961C12.0859 13.3867 13.3945 12.0781 15.0039 12.0781C16.6133 12.0781 17.9219 13.3867 17.9219 14.9961C17.9219 16.6055 16.6094 17.9141 15.0039 17.9141ZM20.7227 10.3242C20.7227 10.9062 20.2539 11.3711 19.6758 11.3711C19.0938 11.3711 18.6289 10.9023 18.6289 10.3242C18.6289 9.74609 19.0977 9.27734 19.6758 9.27734C20.2539 9.27734 20.7227 9.74609 20.7227 10.3242ZM23.6953 11.3867C23.6289 9.98438 23.3086 8.74219 22.2812 7.71875C21.2578 6.69531 20.0156 6.375 18.6133 6.30469C17.168 6.22266 12.8359 6.22266 11.3906 6.30469C9.99219 6.37109 8.75 6.69141 7.72266 7.71484C6.69531 8.73828 6.37891 9.98047 6.30859 11.3828C6.22656 12.8281 6.22656 17.1602 6.30859 18.6055C6.375 20.0078 6.69531 21.25 7.72266 22.2734C8.75 23.2969 9.98828 23.6172 11.3906 23.6875C12.8359 23.7695 17.168 23.7695 18.6133 23.6875C20.0156 23.6211 21.2578 23.3008 22.2812 22.2734C23.3047 21.25 23.625 20.0078 23.6953 18.6055C23.7773 17.1602 23.7773 12.832 23.6953 11.3867ZM21.8281 20.1562C21.5234 20.9219 20.9336 21.5117 20.1641 21.8203C19.0117 22.2773 16.2773 22.1719 15.0039 22.1719C13.7305 22.1719 10.9922 22.2734 9.84375 21.8203C9.07812 21.5156 8.48828 20.9258 8.17969 20.1562C7.72266 19.0039 7.82813 16.2695 7.82813 14.9961C7.82813 13.7227 7.72656 10.9844 8.17969 9.83594C8.48438 9.07031 9.07422 8.48047 9.84375 8.17187C10.9961 7.71484 13.7305 7.82031 15.0039 7.82031C16.2773 7.82031 19.0156 7.71875 20.1641 8.17187C20.9297 8.47656 21.5195 9.06641 21.8281 9.83594C22.2852 10.9883 22.1797 13.7227 22.1797 14.9961C22.1797 16.2695 22.2852 19.0078 21.8281 20.1562Z" fill="black"/>
</svg>
