<?xml version="1.0" encoding="UTF-8"?>
<svg version="1.1" xmlns="http://www.w3.org/2000/svg" width="512" height="512">
<path d="M0 0 C4.91084135 2.28003348 7.47820794 5.236615 10 10 C11.45098835 15.12682551 10.78825406 18.83613757 9.27734375 23.7890625 C5.49179641 30.34141661 -2.01582404 33.29867856 -8.5 36.5625 C-10.57124034 37.62319013 -12.64153022 38.68573799 -14.7109375 39.75 C-15.75991211 40.28882813 -16.80888672 40.82765625 -17.88964844 41.3828125 C-23.59616502 44.34984279 -29.22318106 47.461022 -34.85400391 50.56860352 C-39.36236944 53.04743687 -43.8859851 55.46913556 -48.484375 57.77734375 C-78.42331039 72.84245009 -100.52994293 94.3344021 -111.59765625 126.47265625 C-113.98097687 134.05372844 -115.36942388 141.61291595 -116.08984375 149.51953125 C-116.17313934 150.41685471 -116.25643494 151.31417816 -116.34225464 152.23869324 C-117.30404313 163.41275788 -117.45808394 174.60391253 -117.625 185.8125 C-117.66332253 187.98113299 -117.70238159 190.1497531 -117.7421875 192.31835938 C-117.83657261 197.54546413 -117.9211424 202.7726389 -118 208 C-116.94203909 207.99585193 -116.94203909 207.99585193 -115.86270523 207.99162006 C-98.65905844 207.92521422 -81.45544443 207.87564862 -64.25169754 207.84456348 C-55.93191154 207.82912935 -47.61221136 207.80810631 -39.29248047 207.77368164 C-32.03653393 207.74367305 -24.78064958 207.72439993 -17.52464271 207.71773452 C-13.6866814 207.71384156 -9.84889796 207.70476564 -6.01099396 207.68280983 C-2.38962814 207.66226302 1.2314886 207.65620241 4.85290718 207.66067696 C6.79724959 207.65947375 8.74156563 207.64342772 10.68583679 207.6267395 C28.91162813 207.69011135 44.55316057 214.26766386 57.41015625 227.14453125 C69.45258135 240.42207688 74.30355469 255.61498811 74.29052734 273.1862793 C74.29724457 274.4930513 74.30396179 275.7998233 74.31088257 277.14619446 C74.32846158 280.71261454 74.33323459 284.27893848 74.33451414 287.84539771 C74.33594128 290.08013183 74.34022154 292.31484195 74.34550858 294.54957008 C74.36398436 302.36468669 74.37218255 310.17973532 74.37060547 317.99487305 C74.36940578 325.24874134 74.39048029 332.50231129 74.4220928 339.75610417 C74.44835852 346.00866028 74.45896843 352.26111958 74.45769465 358.51373035 C74.45718789 362.23705579 74.46271047 365.96011598 74.48405075 369.68338585 C74.50725266 373.84470944 74.49784976 378.00537694 74.48583984 382.16674805 C74.49707886 383.37914154 74.50831787 384.59153503 74.51989746 385.84066772 C74.39025972 403.62181512 67.10869438 418.57598855 54.87109375 431.1953125 C45.08324309 440.40534729 30.78577455 448.06508306 17.07098389 448.15390015 C16.0789093 448.16250061 15.08683472 448.17110107 14.06469727 448.17996216 C12.44084106 448.18635208 12.44084106 448.18635208 10.78417969 448.19287109 C9.6388678 448.20104858 8.49355591 448.20922607 7.3135376 448.21765137 C3.516322 448.24249528 -0.28085605 448.25902499 -4.078125 448.2734375 C-5.37839378 448.27876118 -6.67866257 448.28408485 -8.01833344 448.28956985 C-13.49145029 448.31080348 -18.96455504 448.32992925 -24.43770218 448.34119225 C-32.24293561 448.35736598 -40.04766608 448.39037763 -47.85271001 448.44759309 C-53.35957655 448.48656068 -58.8663102 448.50585702 -64.3733108 448.51111281 C-67.65148888 448.51473371 -70.92901354 448.52897989 -74.2070694 448.55921555 C-97.66112296 448.7630868 -114.99877987 445.99758471 -132.71875 429.37109375 C-144.29977973 417.33396182 -150.32682701 402.13192524 -150.26069641 385.58546448 C-150.26643473 384.04962052 -150.26643473 384.04962052 -150.27228898 382.4827494 C-150.28257646 379.06470006 -150.27863479 375.64682004 -150.2746582 372.22875977 C-150.27900721 369.77243393 -150.28419099 367.31610945 -150.29014587 364.85978699 C-150.30214188 358.88608189 -150.30468889 352.91244288 -150.30234561 346.9387318 C-150.30055877 342.07683986 -150.30231995 337.21496152 -150.30657005 332.35307121 C-150.30716524 331.65967239 -150.30776043 330.96627357 -150.30837366 330.25186266 C-150.3095855 328.84288836 -150.31079963 327.43391406 -150.31201603 326.02493977 C-150.3228851 312.81921399 -150.32073299 299.61351376 -150.31463119 286.40778654 C-150.30947133 274.35967554 -150.32069394 262.31164562 -150.33972941 250.26355065 C-150.35916546 237.8658416 -150.36735318 225.46817079 -150.36360615 213.07044643 C-150.36170171 206.12102431 -150.36410664 199.17167104 -150.37832069 192.22226143 C-150.39157121 185.67801506 -150.3888965 179.1339028 -150.37590981 172.58964729 C-150.37355735 170.19890792 -150.37623047 167.80815699 -150.38453293 165.41743088 C-150.42685127 152.27495207 -149.92491077 139.84027634 -147 127 C-146.70412475 125.6997682 -146.70412475 125.6997682 -146.40227222 124.37326908 C-137.56780533 88.74108429 -114.29979321 57.25414225 -83.18798828 37.87109375 C-73.62181671 32.10815314 -63.57406553 27.14603296 -53.65649414 22.02587891 C-45.51534354 17.81657244 -37.45237218 13.47898205 -29.43115234 9.0456543 C-26.96084949 7.68418872 -24.48303108 6.33809702 -22 5 C-20.69893311 4.29049194 -20.69893311 4.29049194 -19.37158203 3.56665039 C-12.68780429 0.04469342 -7.57654404 -1.17151765 0 0 Z " fill="#000000" transform="translate(422,32)"/>
<path d="M0 0 C4.91084135 2.28003348 7.47820794 5.236615 10 10 C11.45098835 15.12682551 10.78825406 18.83613757 9.27734375 23.7890625 C5.49179641 30.34141661 -2.01582404 33.29867856 -8.5 36.5625 C-10.57124034 37.62319013 -12.64153022 38.68573799 -14.7109375 39.75 C-15.75991211 40.28882813 -16.80888672 40.82765625 -17.88964844 41.3828125 C-23.59616502 44.34984279 -29.22318106 47.461022 -34.85400391 50.56860352 C-39.36236944 53.04743687 -43.8859851 55.46913556 -48.484375 57.77734375 C-78.42331039 72.84245009 -100.52994293 94.3344021 -111.59765625 126.47265625 C-113.98097687 134.05372844 -115.36942388 141.61291595 -116.08984375 149.51953125 C-116.17313934 150.41685471 -116.25643494 151.31417816 -116.34225464 152.23869324 C-117.30404313 163.41275788 -117.45808394 174.60391253 -117.625 185.8125 C-117.66332253 187.98113299 -117.70238159 190.1497531 -117.7421875 192.31835938 C-117.83657261 197.54546413 -117.9211424 202.7726389 -118 208 C-116.94203909 207.99585193 -116.94203909 207.99585193 -115.86270523 207.99162006 C-98.65905844 207.92521422 -81.45544443 207.87564862 -64.25169754 207.84456348 C-55.93191154 207.82912935 -47.61221136 207.80810631 -39.29248047 207.77368164 C-32.03653393 207.74367305 -24.78064958 207.72439993 -17.52464271 207.71773452 C-13.6866814 207.71384156 -9.84889796 207.70476564 -6.01099396 207.68280983 C-2.38962814 207.66226302 1.2314886 207.65620241 4.85290718 207.66067696 C6.79724959 207.65947375 8.74156563 207.64342772 10.68583679 207.6267395 C28.91162813 207.69011135 44.55316057 214.26766386 57.41015625 227.14453125 C69.45258135 240.42207688 74.30355469 255.61498811 74.29052734 273.1862793 C74.29724457 274.4930513 74.30396179 275.7998233 74.31088257 277.14619446 C74.32846158 280.71261454 74.33323459 284.27893848 74.33451414 287.84539771 C74.33594128 290.08013183 74.34022154 292.31484195 74.34550858 294.54957008 C74.36398436 302.36468669 74.37218255 310.17973532 74.37060547 317.99487305 C74.36940578 325.24874134 74.39048029 332.50231129 74.4220928 339.75610417 C74.44835852 346.00866028 74.45896843 352.26111958 74.45769465 358.51373035 C74.45718789 362.23705579 74.46271047 365.96011598 74.48405075 369.68338585 C74.50725266 373.84470944 74.49784976 378.00537694 74.48583984 382.16674805 C74.49707886 383.37914154 74.50831787 384.59153503 74.51989746 385.84066772 C74.39025972 403.62181512 67.10869438 418.57598855 54.87109375 431.1953125 C45.08324309 440.40534729 30.78577455 448.06508306 17.07098389 448.15390015 C16.0789093 448.16250061 15.08683472 448.17110107 14.06469727 448.17996216 C12.44084106 448.18635208 12.44084106 448.18635208 10.78417969 448.19287109 C9.6388678 448.20104858 8.49355591 448.20922607 7.3135376 448.21765137 C3.516322 448.24249528 -0.28085605 448.25902499 -4.078125 448.2734375 C-5.37839378 448.27876118 -6.67866257 448.28408485 -8.01833344 448.28956985 C-13.49145029 448.31080348 -18.96455504 448.32992925 -24.43770218 448.34119225 C-32.24293561 448.35736598 -40.04766608 448.39037763 -47.85271001 448.44759309 C-53.35957655 448.48656068 -58.8663102 448.50585702 -64.3733108 448.51111281 C-67.65148888 448.51473371 -70.92901354 448.52897989 -74.2070694 448.55921555 C-97.66112296 448.7630868 -114.99877987 445.99758471 -132.71875 429.37109375 C-144.29977973 417.33396182 -150.32682701 402.13192524 -150.26069641 385.58546448 C-150.26643473 384.04962052 -150.26643473 384.04962052 -150.27228898 382.4827494 C-150.28257646 379.06470006 -150.27863479 375.64682004 -150.2746582 372.22875977 C-150.27900721 369.77243393 -150.28419099 367.31610945 -150.29014587 364.85978699 C-150.30214188 358.88608189 -150.30468889 352.91244288 -150.30234561 346.9387318 C-150.30055877 342.07683986 -150.30231995 337.21496152 -150.30657005 332.35307121 C-150.30716524 331.65967239 -150.30776043 330.96627357 -150.30837366 330.25186266 C-150.3095855 328.84288836 -150.31079963 327.43391406 -150.31201603 326.02493977 C-150.3228851 312.81921399 -150.32073299 299.61351376 -150.31463119 286.40778654 C-150.30947133 274.35967554 -150.32069394 262.31164562 -150.33972941 250.26355065 C-150.35916546 237.8658416 -150.36735318 225.46817079 -150.36360615 213.07044643 C-150.36170171 206.12102431 -150.36410664 199.17167104 -150.37832069 192.22226143 C-150.39157121 185.67801506 -150.3888965 179.1339028 -150.37590981 172.58964729 C-150.37355735 170.19890792 -150.37623047 167.80815699 -150.38453293 165.41743088 C-150.42685127 152.27495207 -149.92491077 139.84027634 -147 127 C-146.70412475 125.6997682 -146.70412475 125.6997682 -146.40227222 124.37326908 C-137.56780533 88.74108429 -114.29979321 57.25414225 -83.18798828 37.87109375 C-73.62181671 32.10815314 -63.57406553 27.14603296 -53.65649414 22.02587891 C-45.51534354 17.81657244 -37.45237218 13.47898205 -29.43115234 9.0456543 C-26.96084949 7.68418872 -24.48303108 6.33809702 -22 5 C-20.69893311 4.29049194 -20.69893311 4.29049194 -19.37158203 3.56665039 C-12.68780429 0.04469342 -7.57654404 -1.17151765 0 0 Z " fill="#000000" transform="translate(166,32)"/>
</svg>
